PathFileType	4	(X/Y/Z)	Patient4_TMGait_0pt3_01_left_29.trc.trc
DataRate	CameraRate	NumFrames	NumMarkers	Units	OrigDataRate	OrigDataStartFrame	OrigNumFrames
50.000000000000	50.000000000000	4	33	mm	50.000000000000	18	       141
Frame#	Time	Sacral			L.Shoulder			Chest			R.Shoulder			Neck			R.ASIS			L.ASIS			R.Thigh.Superior			R.Thigh.Lateral			R.Thigh.Inferior			R.Patella			L.Thigh.Superior			L.Thigh.Lateral			L.Thigh.Inferior			L.Patella			L.Shank.Superior			L.Shank.Lateral			L.Shank.Inferior			R.Shank.Superior			R.Shank.Lateral			R.Shank.Inferior			R.Heel			R.Midfoot.Superior			R.Midfoot.Lateral			R.Toe			L.Heel			L.Midfoot.Lateral			L.Midfoot.Superior			L.Toe			L.Elbow			L.Wrist			R.Elbow			R.Wrist			
		X1	Y1	Z1	X2	Y2	Z2	X3	Y3	Z3	X4	Y4	Z4	X5	Y5	Z5	X6	Y6	Z6	X7	Y7	Z7	X8	Y8	Z8	X9	Y9	Z9	X10	Y10	Z10	X11	Y11	Z11	X12	Y12	Z12	X13	Y13	Z13	X14	Y14	Z14	X15	Y15	Z15	X16	Y16	Z16	X17	Y17	Z17	X18	Y18	Z18	X19	Y19	Z19	X20	Y20	Z20	X21	Y21	Z21	X22	Y22	Z22	X23	Y23	Z23	X24	Y24	Z24	X25	Y25	Z25	X26	Y26	Z26	X27	Y27	Z27	X28	Y28	Z28	X29	Y29	Z29	X30	Y30	Z30	X31	Y31	Z31	X32	Y32	Z32	X33	Y33	Z33	

18	55.070000000000	714.957480587180	1002.191865206016	568.644495414705	863.966054598978	1418.732072954865	346.867473046259	992.874453903415	1355.019648866417	490.061119390912	944.010831039066	1439.174596917502	671.861505852137	878.996095428323	1488.507165366110	500.824794560321	956.490590481414	933.169784024595	650.895697779462	906.316955518161	959.837766495516	381.116017947672	972.697133100885	723.835910865792	611.321798814935	886.006482565338	616.222500918024	672.270637034059	948.887896682932	561.880964890642	583.623178703554	938.380691470771	469.162776741137	586.298785867748	990.918108499986	773.858930938081	413.537390024480	941.095053566980	646.904751141815	336.057254864445	1038.040669240779	584.392237993705	403.707529986067	1062.610691534859	514.829851829441	397.908042461884	1035.562714536768	441.931262690323	382.454495382608	953.459690032482	326.039834385906	320.869609927973	1021.904372810875	211.831859065833	373.934243493731	889.520611133054	386.093754972303	592.142254298116	801.108080717776	296.644498325463	654.126464594284	816.934013209901	198.789148944795	586.615618663632	651.112704534703	51.792172904105	556.904950432135	824.618045397809	97.190256509447	594.665370904313	732.813472470263	40.933051552332	632.156960380627	940.557044222263	38.348690508308	626.646067103900	911.432820161521	42.900584344299	399.807515420199	988.893206106558	42.897376745943	323.107229491696	1067.358484066682	111.443781875310	350.273587582829	1197.754639076873	69.020743664405	327.328178698828	726.090653672022	1085.637025286138	275.098050324095	698.750597926901	828.499916576999	298.910374166784	1074.738742305379	1126.560564705614	794.406981170017	1313.982928086342	1141.738215178009	710.262641438224	
19	55.090000000000	715.425733170038	1003.348321123717	567.083124143940	863.504700839044	1418.983732640206	343.975508295281	993.522835242935	1355.031448962818	486.108009912369	946.433729830973	1439.961200946598	667.920489354127	879.872498076487	1488.787083296194	497.710632173035	956.658785949228	933.082175469643	648.241578938114	905.638135413919	960.158408941306	378.620491413044	969.393894814991	723.038951862508	609.256603035872	881.251775981490	616.833739553684	671.156469492260	942.711838849931	561.384097970711	582.511893471428	930.733757697002	469.408431128729	585.530701818832	988.583990495326	772.975877360690	410.133862524663	937.172080484547	646.596496258666	332.495601116798	1033.911653741597	583.608335044871	399.651639439769	1058.339270586117	515.477179298958	394.419677296057	1033.815360379397	442.714371844844	379.196451609986	956.341445345233	323.701987165115	316.920876783340	1028.191632076937	211.938546976025	371.190834913285	882.408140298971	386.506377806528	591.710690482466	794.168498772886	297.012360547792	653.901145269097	810.465428371553	199.037577848377	586.527173474002	644.962906189943	51.585489694010	556.932216378417	818.604147657538	97.233815429740	594.714883330130	726.695804268573	40.843515559221	632.175204486775	934.446869740576	38.429574440115	626.631575669183	922.597534355329	40.408507597561	396.266921926502	1001.212375186447	41.374351772981	320.608080143250	1077.760239119038	111.863217531380	348.459265433505	1209.536315867224	72.070880271001	327.815403080405	720.799503113361	1088.133166474955	274.402857704146	691.938116947133	831.085010251707	300.043259473676	1086.167629756407	1132.992531730727	789.061826162472	1319.960195965585	1167.840167951143	697.820546061676	
20	55.110000000000	716.021346692467	1003.893518199873	565.137079271974	863.289626071330	1418.609334895774	340.672178927479	994.266048297677	1354.498757662665	481.913201255443	948.695268173722	1440.195319299692	663.659784241780	880.832494220057	1488.528376211186	494.180695603247	956.960984968472	932.554459533810	645.472926772322	905.214655435245	959.813762258259	375.982805783832	966.358262566736	721.880766171951	607.075920822526	876.743327950876	617.093370877994	669.835692678013	936.802053347313	560.573547424756	581.212220168445	923.313436041953	469.305886452378	584.514967858633	986.761595060558	771.649769055283	406.622894524596	933.744779605463	645.690546866761	329.137657905409	1030.575890274105	582.465747509599	395.599348165222	1054.554837568642	515.332660016913	390.994709927581	1032.057180417194	442.704517832295	376.018735312494	958.054352146130	321.479296123797	313.474366937822	1032.361629723225	211.721203619342	368.733939086567	875.459259753197	386.586370905927	591.075338202982	787.318367933022	297.136909958994	653.548133282993	803.979782184560	199.017760188802	586.321422776696	638.757246588934	51.078239750636	556.895305519185	812.471230307621	97.202657393782	594.693193662228	720.522263755656	40.601628198754	632.162454110623	928.308557315191	38.558864218205	626.605272388547	930.280380317835	38.851120646235	393.432500306129	1009.639887695728	40.345510551030	318.443646250661	1084.935574268679	111.897617400823	346.802247309186	1217.511380529252	73.652236698206	327.729176644968	716.944574721501	1089.507249652594	273.323660627790	687.249089840039	832.419453947437	300.717344431063	1097.093155192999	1139.029022065630	783.433541984341	1324.095752913442	1192.077252269655	685.791203568268	
21	55.130000000000	716.734414388033	1003.864894232086	562.819249047674	863.302071917367	1417.643085659601	336.954858730382	995.099306107259	1353.471065996267	477.472388700363	950.792099437543	1439.912364733915	659.090527041417	881.860898483176	1487.771302497804	490.223406028834	957.435724686968	931.631240399436	642.592657376927	905.055289115749	958.847515684551	373.210450631987	963.674242432402	720.402133336099	604.793515885632	872.566952422416	617.026999784962	668.311342129670	931.273649494866	559.474369584829	579.737658135697	916.254249272969	468.861707637243	583.266591216477	985.525967938839	769.974775529536	403.064177741931	930.923989607700	644.255458507551	326.044369891136	1028.162455936683	581.055203698152	391.607324938174	1051.423055093496	514.473115719901	387.679569433021	1030.451314453650	441.936229468738	372.972004037487	958.716452987602	319.309030880557	310.566314056342	1034.573049754421	211.052056164341	366.600417954430	868.772445212184	386.351357927468	590.250629655753	780.637041703941	297.058726622797	653.088232030679	797.518744863656	198.765201630478	586.023354330167	632.511868038496	50.350534369820	556.817416768683	806.236522968822	97.103163123493	594.611401059656	714.308351730059	40.240950704395	632.131660159706	922.152837695346	38.717106474870	626.571598503910	934.589798030742	37.976647107021	391.341724301239	1014.289928234975	39.587729339359	316.632589511846	1089.028588061513	111.373247351929	345.332580474442	1221.892526962842	73.602288706948	327.060345085541	714.514106474091	1089.738113674218	271.821060974279	684.594116287344	832.507842616855	300.851959258235	1107.428470770451	1144.561157009332	777.529027667330	1326.707665368432	1214.153680163666	674.234394486975	
